<svg width="137" height="45" viewBox="0 0 137 45" fill="none" xmlns="http://www.w3.org/2000/svg">
<path d="M18.072 45L16.088 33.352H7.064L5.144 45H0.024L8.216 0.199997H15L23.192 45H18.072ZM11.608 6.664L7.768 29.256H15.384L11.608 6.664ZM28.2195 45V0.199997H33.3395V40.904H43.2595V45H28.2195ZM48.282 45V0.199997H55.578C58.778 0.199997 61.2313 1.096 62.938 2.888C64.6873 4.68 65.562 7.816 65.562 12.296C65.562 17.5013 63.7487 20.7013 60.122 21.896C64.3887 22.8347 66.522 26.2693 66.522 32.2C66.522 36.936 65.6473 40.264 63.898 42.184C62.1487 44.0613 59.7167 45 56.602 45H48.282ZM61.53 33.416V31.688C61.53 26.3547 59.8447 23.688 56.474 23.688H53.402V40.968H56.474C58.0953 40.968 59.3327 40.4133 60.186 39.304C61.082 38.1947 61.53 36.232 61.53 33.416ZM60.826 12.808V11.272C60.826 8.584 60.3993 6.74933 59.546 5.768C58.6927 4.744 57.4767 4.232 55.898 4.232H53.402V20.296H55.898C59.1833 20.296 60.826 17.8 60.826 12.808ZM87.7595 45L85.7755 33.352H76.7515L74.8315 45H69.7115L77.9035 0.199997H84.6875L92.8795 45H87.7595ZM81.2955 6.664L77.4555 29.256H85.0715L81.2955 6.664ZM97.907 45V0.199997H105.843C109 0.199997 111.454 1.20266 113.203 3.208C114.952 5.21333 115.827 8.81867 115.827 14.024V14.344C115.827 20.8293 114.248 24.9467 111.091 26.696L116.403 45H111.155L106.163 27.848H103.027V45H97.907ZM110.771 14.984V13.064C110.771 9.77866 110.323 7.496 109.427 6.216C108.574 4.936 107.379 4.296 105.843 4.296H103.027V23.816H105.843C109.128 23.816 110.771 20.872 110.771 14.984ZM119.395 4.296V0.199997H136.867V4.296H130.659V45H125.603V4.296H119.395Z" fill="url(#paint0_linear_1_14)"/>
<defs>
<linearGradient id="paint0_linear_1_14" x1="-23" y1="-16" x2="155" y2="58" gradientUnits="userSpaceOnUse">
<stop stop-color="#0CCA6F" stop-opacity="0.73"/>
<stop offset="0.76827" stop-color="#FB3E98" stop-opacity="0.74"/>
</linearGradient>
</defs>
</svg>
